<svg width="31" height="31" viewBox="0 0 25 32" fill="none" xmlns="http://www.w3.org/2000/svg">
<path d="M21.6826 10.6668H20.2003V7.75016C20.2003 3.72516 16.8798 0.458496 12.7884 0.458496C8.69707 0.458496 5.37656 3.72516 5.37656 7.75016V10.6668H3.89419C2.26358 10.6668 0.929443 11.9793 0.929443 13.5835V28.1668C0.929443 29.771 2.26358 31.0835 3.89419 31.0835H21.6826C23.3133 31.0835 24.6474 29.771 24.6474 28.1668V13.5835C24.6474 11.9793 23.3133 10.6668 21.6826 10.6668ZM12.7884 23.7918C11.1578 23.7918 9.82367 22.4793 9.82367 20.8752C9.82367 19.271 11.1578 17.9585 12.7884 17.9585C14.419 17.9585 15.7532 19.271 15.7532 20.8752C15.7532 22.4793 14.419 23.7918 12.7884 23.7918ZM17.3838 10.6668H8.19306V7.75016C8.19306 5.25641 10.2536 3.22933 12.7884 3.22933C15.3233 3.22933 17.3838 5.25641 17.3838 7.75016V10.6668Z" fill="white"/>
</svg>
