<svg width="31" height="31" viewBox="0 0 31 31" fill="none" xmlns="http://www.w3.org/2000/svg">
<path d="M15.4999 0.0834961C6.98992 0.0834961 0.083252 6.99016 0.083252 15.5002C0.083252 24.0102 6.98992 30.9168 15.4999 30.9168C24.0099 30.9168 30.9166 24.0102 30.9166 15.5002C30.9166 6.99016 24.0099 0.0834961 15.4999 0.0834961ZM15.4999 4.7085C18.0591 4.7085 20.1249 6.77433 20.1249 9.3335C20.1249 11.8927 18.0591 13.9585 15.4999 13.9585C12.9408 13.9585 10.8749 11.8927 10.8749 9.3335C10.8749 6.77433 12.9408 4.7085 15.4999 4.7085ZM15.4999 26.6002C11.6458 26.6002 8.23867 24.6268 6.24992 21.636C6.29617 18.5681 12.4166 16.8877 15.4999 16.8877C18.5678 16.8877 24.7037 18.5681 24.7499 21.636C22.7612 24.6268 19.3541 26.6002 15.4999 26.6002Z" fill="white"/>
</svg>
